<?xml version="1.0" encoding="UTF-8" standalone="no"?>
<!DOCTYPE svg PUBLIC "-//W3C//DTD SVG 1.1//EN"
 "http://www.w3.org/Graphics/SVG/1.1/DTD/svg11.dtd">
<!-- Generated by graphviz version 2.43.0 (0)
 -->
<!-- Title: CPrjTemplate Pages: 1 -->
<svg width="1712pt" height="275pt"
 viewBox="0.00 0.00 1712.25 275.00" xmlns="http://www.w3.org/2000/svg" xmlns:xlink="http://www.w3.org/1999/xlink">
<g id="graph0" class="graph" transform="scale(1 1) rotate(0) translate(4 271)">
<title>CPrjTemplate</title>
<polygon fill="white" stroke="transparent" points="-4,4 -4,-271 1708.25,-271 1708.25,4 -4,4"/>
<g id="clust1" class="cluster">
<title>clusterLegend</title>
<polygon fill="none" stroke="black" points="8,-8 8,-259 636,-259 636,-8 8,-8"/>
<text text-anchor="middle" x="322" y="-243.8" font-family="Times,serif" font-size="14.00">Legend</text>
</g>
<!-- legendNode0 -->
<g id="node1" class="node">
<title>legendNode0</title>
<polygon fill="none" stroke="black" points="339.03,-192.05 342.36,-192.15 345.65,-192.3 348.89,-192.49 352.08,-192.74 355.19,-193.03 358.22,-193.36 361.14,-193.75 363.96,-194.18 366.66,-194.65 369.23,-195.16 371.66,-195.71 373.95,-196.31 376.08,-196.94 378.05,-197.61 379.86,-198.31 381.5,-199.04 382.96,-199.8 384.25,-200.59 385.36,-201.41 386.29,-202.25 387.05,-203.11 387.63,-203.99 388.03,-204.89 388.26,-205.8 388.32,-206.72 388.22,-207.65 387.96,-208.59 387.54,-209.53 386.97,-210.47 386.26,-211.41 385.42,-212.35 384.44,-213.28 383.35,-214.2 382.13,-215.11 380.81,-216.01 379.39,-216.89 377.88,-217.75 376.28,-218.59 374.6,-219.41 372.85,-220.2 371.04,-220.96 369.16,-221.69 367.24,-222.39 365.27,-223.06 363.25,-223.69 361.2,-224.29 359.12,-224.84 357.01,-225.35 354.88,-225.82 352.73,-226.25 350.56,-226.64 348.38,-226.97 346.18,-227.26 343.98,-227.51 341.77,-227.7 339.55,-227.85 337.33,-227.95 335.11,-228 332.89,-228 330.67,-227.95 328.45,-227.85 326.23,-227.7 324.02,-227.51 321.82,-227.26 319.62,-226.97 317.44,-226.64 315.27,-226.25 313.12,-225.82 310.99,-225.35 308.88,-224.84 306.8,-224.29 304.75,-223.69 302.73,-223.06 300.76,-222.39 298.84,-221.69 296.96,-220.96 295.15,-220.2 293.4,-219.41 291.72,-218.59 290.12,-217.75 288.61,-216.89 287.19,-216.01 285.87,-215.11 284.65,-214.2 283.56,-213.28 282.58,-212.35 281.74,-211.41 281.03,-210.47 280.46,-209.53 280.04,-208.59 279.78,-207.65 279.68,-206.72 279.74,-205.8 279.97,-204.89 280.37,-203.99 280.95,-203.11 281.71,-202.25 282.64,-201.41 283.75,-200.59 285.04,-199.8 286.5,-199.04 288.14,-198.31 289.95,-197.61 291.92,-196.94 294.05,-196.31 296.34,-195.71 298.77,-195.16 301.34,-194.65 304.04,-194.18 306.86,-193.75 309.78,-193.36 312.81,-193.03 315.92,-192.74 319.11,-192.49 322.35,-192.3 325.64,-192.15 328.97,-192.05 332.32,-192 335.68,-192 339.03,-192.05"/>
<text text-anchor="middle" x="334" y="-206.9" font-family="Times,serif" font-size="12.00">Executable</text>
</g>
<!-- legendNode1 -->
<g id="node2" class="node">
<title>legendNode1</title>
<polygon fill="none" stroke="black" points="150.09,-121.54 150.09,-136.46 110.79,-147 55.21,-147 15.91,-136.46 15.91,-121.54 55.21,-111 110.79,-111 150.09,-121.54"/>
<text text-anchor="middle" x="83" y="-125.9" font-family="Times,serif" font-size="12.00">Static Library</text>
</g>
<!-- legendNode0&#45;&gt;legendNode1 -->
<g id="edge1" class="edge">
<title>legendNode0&#45;&gt;legendNode1</title>
<path fill="none" stroke="black" d="M293.17,-196.49C257.88,-185.64 205.52,-169.45 160,-155 151.53,-152.31 142.55,-149.43 133.83,-146.61"/>
<polygon fill="black" stroke="black" points="134.72,-143.22 124.13,-143.46 132.56,-149.88 134.72,-143.22"/>
</g>
<!-- legendNode2 -->
<g id="node3" class="node">
<title>legendNode2</title>
<polygon fill="none" stroke="black" points="319.1,-121.54 319.1,-136.46 276.28,-147 215.72,-147 172.9,-136.46 172.9,-121.54 215.72,-111 276.28,-111 319.1,-121.54"/>
<polygon fill="none" stroke="black" points="323.09,-118.41 323.09,-139.59 276.76,-151 215.24,-151 168.91,-139.59 168.91,-118.41 215.24,-107 276.76,-107 323.09,-118.41"/>
<text text-anchor="middle" x="246" y="-125.9" font-family="Times,serif" font-size="12.00">Shared Library</text>
</g>
<!-- legendNode0&#45;&gt;legendNode2 -->
<g id="edge2" class="edge">
<title>legendNode0&#45;&gt;legendNode2</title>
<path fill="none" stroke="black" d="M315.77,-192.63C304.68,-182.68 290.22,-169.69 277.34,-158.13"/>
<polygon fill="black" stroke="black" points="279.35,-155.23 269.57,-151.16 274.67,-160.44 279.35,-155.23"/>
</g>
<!-- legendNode3 -->
<g id="node4" class="node">
<title>legendNode3</title>
<polygon fill="none" stroke="black" points="496.92,-121.54 496.92,-136.46 453.62,-147 392.38,-147 349.08,-136.46 349.08,-121.54 392.38,-111 453.62,-111 496.92,-121.54"/>
<polygon fill="none" stroke="black" points="500.92,-118.4 500.92,-139.6 454.1,-151 391.9,-151 345.08,-139.6 345.08,-118.4 391.9,-107 454.1,-107 500.92,-118.4"/>
<polygon fill="none" stroke="black" points="504.92,-115.26 504.92,-142.74 454.58,-155 391.42,-155 341.08,-142.74 341.08,-115.26 391.42,-103 454.58,-103 504.92,-115.26"/>
<text text-anchor="middle" x="423" y="-125.9" font-family="Times,serif" font-size="12.00">Module Library</text>
</g>
<!-- legendNode0&#45;&gt;legendNode3 -->
<!-- legendNode7 -->
<g id="node8" class="node">
<title>legendNode7</title>
<polygon fill="none" stroke="black" points="627.5,-147 522.5,-147 522.5,-111 627.5,-111 627.5,-147"/>
<text text-anchor="middle" x="575" y="-125.9" font-family="Times,serif" font-size="12.00">Custom Target</text>
</g>
<!-- legendNode0&#45;&gt;legendNode7 -->
<!-- legendNode4 -->
<g id="node5" class="node">
<title>legendNode4</title>
<polygon fill="none" stroke="black" points="200.14,-39.56 108,-52 15.86,-39.56 51.05,-19.44 164.95,-19.44 200.14,-39.56"/>
<text text-anchor="middle" x="108" y="-30.9" font-family="Times,serif" font-size="12.00">Interface Library</text>
</g>
<!-- legendNode1&#45;&gt;legendNode4 -->
<g id="edge4" class="edge">
<title>legendNode1&#45;&gt;legendNode4</title>
<path fill="none" stroke="black" stroke-dasharray="5,2" d="M87.59,-110.94C91.31,-97.09 96.62,-77.32 100.9,-61.42"/>
<polygon fill="black" stroke="black" points="104.31,-62.2 103.53,-51.64 97.55,-60.39 104.31,-62.2"/>
<text text-anchor="middle" x="131.5" y="-73.8" font-family="Times,serif" font-size="14.00">Interface</text>
</g>
<!-- legendNode5 -->
<g id="node6" class="node">
<title>legendNode5</title>
<polygon fill="none" stroke="black" points="367.77,-34 330.39,-52 255.61,-52 218.23,-34 255.61,-16 330.39,-16 367.77,-34"/>
<text text-anchor="middle" x="293" y="-30.9" font-family="Times,serif" font-size="12.00">Object Library</text>
</g>
<!-- legendNode2&#45;&gt;legendNode5 -->
<g id="edge5" class="edge">
<title>legendNode2&#45;&gt;legendNode5</title>
<path fill="none" stroke="black" stroke-dasharray="1,5" d="M256.67,-106.9C263.51,-93.36 272.45,-75.67 279.74,-61.23"/>
<polygon fill="black" stroke="black" points="282.88,-62.79 284.26,-52.28 276.63,-59.63 282.88,-62.79"/>
<text text-anchor="middle" x="302" y="-73.8" font-family="Times,serif" font-size="14.00">Private</text>
</g>
<!-- legendNode6 -->
<g id="node7" class="node">
<title>legendNode6</title>
<polygon fill="none" stroke="black" points="554.95,-29.99 538.12,-45.22 470,-52 401.88,-45.22 385.05,-29.99 432.2,-17.78 507.8,-17.78 554.95,-29.99"/>
<text text-anchor="middle" x="470" y="-30.9" font-family="Times,serif" font-size="12.00">Unknown Library</text>
</g>
<!-- legendNode3&#45;&gt;legendNode6 -->
<g id="edge6" class="edge">
<title>legendNode3&#45;&gt;legendNode6</title>
<path fill="none" stroke="black" d="M435.84,-102.59C442.49,-89.43 450.58,-73.42 457.22,-60.28"/>
<polygon fill="black" stroke="black" points="460.37,-61.81 461.76,-51.31 454.13,-58.65 460.37,-61.81"/>
</g>
<!-- node0 -->
<g id="node9" class="node">
<title>node0</title>
<polygon fill="none" stroke="black" points="1071.71,-39.56 925,-52 778.29,-39.56 834.33,-19.44 1015.67,-19.44 1071.71,-39.56"/>
<text text-anchor="middle" x="925" y="-30.9" font-family="Times,serif" font-size="12.00">CPrjTemplate_compiler_flags</text>
</g>
<!-- node1 -->
<g id="node10" class="node">
<title>node1</title>
<polygon fill="none" stroke="black" points="1424.3,-39.56 1257,-52 1089.7,-39.56 1153.6,-19.44 1360.4,-19.44 1424.3,-39.56"/>
<text text-anchor="middle" x="1257" y="-30.9" font-family="Times,serif" font-size="12.00">CPrjTemplate_compiler_warnings</text>
</g>
<!-- node2 -->
<g id="node11" class="node">
<title>node2</title>
<polygon fill="none" stroke="black" points="1127.11,-192.05 1132.49,-192.15 1137.8,-192.3 1143.04,-192.49 1148.19,-192.74 1153.21,-193.03 1158.09,-193.36 1162.82,-193.75 1167.36,-194.18 1171.72,-194.65 1175.87,-195.16 1179.79,-195.71 1183.48,-196.31 1186.93,-196.94 1190.11,-197.61 1193.03,-198.31 1195.67,-199.04 1198.03,-199.8 1200.11,-200.59 1201.91,-201.41 1203.41,-202.25 1204.63,-203.11 1205.57,-203.99 1206.22,-204.89 1206.59,-205.8 1206.69,-206.72 1206.52,-207.65 1206.1,-208.59 1205.43,-209.53 1204.51,-210.47 1203.37,-211.41 1202,-212.35 1200.43,-213.28 1198.65,-214.2 1196.7,-215.11 1194.57,-216.01 1192.27,-216.89 1189.83,-217.75 1187.25,-218.59 1184.54,-219.41 1181.71,-220.2 1178.79,-220.96 1175.76,-221.69 1172.65,-222.39 1169.47,-223.06 1166.22,-223.69 1162.91,-224.29 1159.55,-224.84 1156.15,-225.35 1152.71,-225.82 1149.23,-226.25 1145.73,-226.64 1142.21,-226.97 1138.66,-227.26 1135.11,-227.51 1131.54,-227.7 1127.96,-227.85 1124.38,-227.95 1120.79,-228 1117.21,-228 1113.62,-227.95 1110.04,-227.85 1106.46,-227.7 1102.89,-227.51 1099.34,-227.26 1095.79,-226.97 1092.27,-226.64 1088.77,-226.25 1085.29,-225.82 1081.85,-225.35 1078.45,-224.84 1075.09,-224.29 1071.78,-223.69 1068.53,-223.06 1065.35,-222.39 1062.24,-221.69 1059.21,-220.96 1056.29,-220.2 1053.46,-219.41 1050.75,-218.59 1048.17,-217.75 1045.73,-216.89 1043.43,-216.01 1041.3,-215.11 1039.35,-214.2 1037.57,-213.28 1036,-212.35 1034.63,-211.41 1033.49,-210.47 1032.57,-209.53 1031.9,-208.59 1031.48,-207.65 1031.31,-206.72 1031.41,-205.8 1031.78,-204.89 1032.43,-203.99 1033.37,-203.11 1034.59,-202.25 1036.09,-201.41 1037.89,-200.59 1039.97,-199.8 1042.33,-199.04 1044.97,-198.31 1047.89,-197.61 1051.07,-196.94 1054.52,-196.31 1058.21,-195.71 1062.13,-195.16 1066.28,-194.65 1070.64,-194.18 1075.18,-193.75 1079.91,-193.36 1084.79,-193.03 1089.81,-192.74 1094.96,-192.49 1100.2,-192.3 1105.51,-192.15 1110.89,-192.05 1116.29,-192 1121.71,-192 1127.11,-192.05"/>
<text text-anchor="middle" x="1119" y="-206.9" font-family="Times,serif" font-size="12.00">CPrjTemplate_main</text>
</g>
<!-- node2&#45;&gt;node0 -->
<g id="edge8" class="edge">
<title>node2&#45;&gt;node0</title>
<path fill="none" stroke="black" stroke-dasharray="1,5" d="M1031.88,-204.47C957.24,-198.54 857.95,-185.1 833,-155 818.25,-137.21 822.59,-123.63 833,-103 843.66,-81.87 864.32,-65.68 883.37,-54.41"/>
<polygon fill="black" stroke="black" points="885.24,-57.37 892.25,-49.43 881.81,-51.27 885.24,-57.37"/>
</g>
<!-- node2&#45;&gt;node1 -->
<g id="edge9" class="edge">
<title>node2&#45;&gt;node1</title>
<path fill="none" stroke="black" stroke-dasharray="1,5" d="M1198.97,-200.02C1227.07,-192.58 1255.88,-179.15 1273,-155 1292.62,-127.33 1281.14,-86.86 1269.98,-60.72"/>
<polygon fill="black" stroke="black" points="1273.1,-59.12 1265.78,-51.46 1266.73,-62.01 1273.1,-59.12"/>
</g>
<!-- node2&#45;&gt;node2 -->
<g id="edge10" class="edge">
<title>node2&#45;&gt;node2</title>
<path fill="none" stroke="black" d="M1193.19,-216.64C1211.34,-216.15 1224.85,-213.94 1224.85,-210 1224.85,-208.06 1221.57,-206.54 1216.09,-205.44"/>
<polygon fill="black" stroke="black" points="1216.17,-201.92 1205.79,-204.05 1215.23,-208.85 1216.17,-201.92"/>
</g>
<!-- node3 -->
<g id="node12" class="node">
<title>node3</title>
<polygon fill="none" stroke="black" points="1008.08,-121.54 1008.08,-136.46 959.41,-147 890.59,-147 841.92,-136.46 841.92,-121.54 890.59,-111 959.41,-111 1008.08,-121.54"/>
<text text-anchor="middle" x="925" y="-125.9" font-family="Times,serif" font-size="12.00">arduino_due_core</text>
</g>
<!-- node2&#45;&gt;node3 -->
<g id="edge12" class="edge">
<title>node2&#45;&gt;node3</title>
<path fill="none" stroke="black" stroke-dasharray="1,5" d="M1080.21,-193.2C1049.61,-180.74 1006.76,-163.29 973.83,-149.88"/>
<polygon fill="black" stroke="black" points="974.97,-146.57 964.39,-146.04 972.33,-153.05 974.97,-146.57"/>
</g>
<!-- node4 -->
<g id="node13" class="node">
<title>node4</title>
<polygon fill="none" stroke="black" points="1374,-124.99 1368.65,-140.22 1347,-147 1325.35,-140.22 1320,-124.99 1334.98,-112.78 1359.02,-112.78 1374,-124.99"/>
<text text-anchor="middle" x="1347" y="-125.9" font-family="Times,serif" font-size="12.00">c</text>
</g>
<!-- node2&#45;&gt;node4 -->
<g id="edge13" class="edge">
<title>node2&#45;&gt;node4</title>
<path fill="none" stroke="black" stroke-dasharray="1,5" d="M1206.18,-204.21C1239.05,-199.52 1275.76,-190.63 1306,-174 1315.74,-168.64 1324.48,-160.13 1331.35,-152.01"/>
<polygon fill="black" stroke="black" points="1334.11,-154.16 1337.58,-144.15 1328.62,-149.82 1334.11,-154.16"/>
</g>
<!-- node5 -->
<g id="node14" class="node">
<title>node5</title>
<polygon fill="none" stroke="black" points="1263.92,-121.54 1263.92,-136.46 1220.62,-147 1159.38,-147 1116.08,-136.46 1116.08,-121.54 1159.38,-111 1220.62,-111 1263.92,-121.54"/>
<text text-anchor="middle" x="1190" y="-125.9" font-family="Times,serif" font-size="12.00">dummy_module</text>
</g>
<!-- node2&#45;&gt;node5 -->
<g id="edge16" class="edge">
<title>node2&#45;&gt;node5</title>
<path fill="none" stroke="black" stroke-dasharray="1,5" d="M1134.41,-191.86C1144.18,-180.99 1156.97,-166.75 1167.82,-154.67"/>
<polygon fill="black" stroke="black" points="1170.54,-156.89 1174.62,-147.11 1165.34,-152.21 1170.54,-156.89"/>
</g>
<!-- node6 -->
<g id="node15" class="node">
<title>node6</title>
<polygon fill="none" stroke="black" points="1446,-124.99 1440.65,-140.22 1419,-147 1397.35,-140.22 1392,-124.99 1406.98,-112.78 1431.02,-112.78 1446,-124.99"/>
<text text-anchor="middle" x="1419" y="-125.9" font-family="Times,serif" font-size="12.00">gcc</text>
</g>
<!-- node2&#45;&gt;node6 -->
<g id="edge17" class="edge">
<title>node2&#45;&gt;node6</title>
<path fill="none" stroke="black" stroke-dasharray="1,5" d="M1203.87,-202.4C1257.38,-195.68 1326.76,-182.16 1383,-155 1387.12,-153.01 1391.29,-150.58 1395.26,-148.02"/>
<polygon fill="black" stroke="black" points="1397.27,-150.88 1403.53,-142.33 1393.31,-145.11 1397.27,-150.88"/>
</g>
<!-- node7 -->
<g id="node16" class="node">
<title>node7</title>
<polygon fill="none" stroke="black" points="1704,-124.99 1680.24,-140.22 1584,-147 1487.76,-140.22 1464,-124.99 1530.59,-112.78 1637.41,-112.78 1704,-124.99"/>
<text text-anchor="middle" x="1584" y="-125.9" font-family="Times,serif" font-size="12.00">libsam_sam3x8e_gcc_rel.a</text>
</g>
<!-- node2&#45;&gt;node7 -->
<g id="edge18" class="edge">
<title>node2&#45;&gt;node7</title>
<path fill="none" stroke="black" stroke-dasharray="1,5" d="M1193.54,-198.35C1239.08,-191.7 1298.47,-182.76 1351,-174 1397.35,-166.27 1408.82,-163.69 1455,-155 1472.88,-151.64 1492.13,-147.94 1510.17,-144.45"/>
<polygon fill="black" stroke="black" points="1510.9,-147.87 1520.05,-142.53 1509.57,-141 1510.9,-147.87"/>
</g>
<!-- node8 -->
<g id="node17" class="node">
<title>node8</title>
<polygon fill="none" stroke="black" points="1097.96,-121.54 1097.96,-136.46 1076.9,-147 1047.1,-147 1026.04,-136.46 1026.04,-121.54 1047.1,-111 1076.9,-111 1097.96,-121.54"/>
<text text-anchor="middle" x="1062" y="-125.9" font-family="Times,serif" font-size="12.00">littlefs</text>
</g>
<!-- node2&#45;&gt;node8 -->
<g id="edge21" class="edge">
<title>node2&#45;&gt;node8</title>
<path fill="none" stroke="black" stroke-dasharray="1,5" d="M1106.63,-191.86C1098.94,-181.2 1088.91,-167.29 1080.3,-155.37"/>
<polygon fill="black" stroke="black" points="1083.03,-153.17 1074.34,-147.11 1077.36,-157.27 1083.03,-153.17"/>
</g>
<!-- node9 -->
<g id="node18" class="node">
<title>node9</title>
<polygon fill="none" stroke="black" points="700,-124.99 694.65,-140.22 673,-147 651.35,-140.22 646,-124.99 660.98,-112.78 685.02,-112.78 700,-124.99"/>
<text text-anchor="middle" x="673" y="-125.9" font-family="Times,serif" font-size="12.00">m</text>
</g>
<!-- node2&#45;&gt;node9 -->
<g id="edge22" class="edge">
<title>node2&#45;&gt;node9</title>
<path fill="none" stroke="black" stroke-dasharray="1,5" d="M1034.13,-202.5C968.35,-196.82 875.05,-187.38 794,-174 755.81,-167.7 744.45,-170.55 709,-155 704.73,-153.13 700.44,-150.72 696.39,-148.14"/>
<polygon fill="black" stroke="black" points="698.21,-145.14 687.99,-142.35 694.24,-150.91 698.21,-145.14"/>
</g>
<!-- node10 -->
<g id="node19" class="node">
<title>node10</title>
<polygon fill="none" stroke="black" points="786.33,-124.99 779.53,-140.22 752,-147 724.47,-140.22 717.67,-124.99 736.72,-112.78 767.28,-112.78 786.33,-124.99"/>
<text text-anchor="middle" x="752" y="-125.9" font-family="Times,serif" font-size="12.00">nosys</text>
</g>
<!-- node2&#45;&gt;node10 -->
<g id="edge23" class="edge">
<title>node2&#45;&gt;node10</title>
<path fill="none" stroke="black" stroke-dasharray="1,5" d="M1031.41,-205.49C951.5,-201.19 839.96,-192.12 800,-174 788.81,-168.93 778.46,-160.23 770.27,-151.89"/>
<polygon fill="black" stroke="black" points="772.74,-149.42 763.38,-144.46 767.61,-154.18 772.74,-149.42"/>
</g>
<!-- node3&#45;&gt;node0 -->
<g id="edge11" class="edge">
<title>node3&#45;&gt;node0</title>
<path fill="none" stroke="black" stroke-dasharray="1,5" d="M925,-110.94C925,-97.39 925,-78.18 925,-62.47"/>
<polygon fill="black" stroke="black" points="928.5,-62.26 925,-52.26 921.5,-62.26 928.5,-62.26"/>
</g>
<!-- node5&#45;&gt;node0 -->
<g id="edge14" class="edge">
<title>node5&#45;&gt;node0</title>
<path fill="none" stroke="black" stroke-dasharray="1,5" d="M1148.59,-113.47C1101.37,-96.9 1024.24,-69.83 974.05,-52.21"/>
<polygon fill="black" stroke="black" points="974.98,-48.83 964.39,-48.82 972.66,-55.44 974.98,-48.83"/>
</g>
<!-- node5&#45;&gt;node1 -->
<g id="edge15" class="edge">
<title>node5&#45;&gt;node1</title>
<path fill="none" stroke="black" stroke-dasharray="1,5" d="M1202.29,-110.94C1212.62,-96.61 1227.51,-75.93 1239.16,-59.77"/>
<polygon fill="black" stroke="black" points="1242.23,-61.49 1245.24,-51.33 1236.55,-57.39 1242.23,-61.49"/>
</g>
<!-- node8&#45;&gt;node0 -->
<g id="edge19" class="edge">
<title>node8&#45;&gt;node0</title>
<path fill="none" stroke="black" stroke-dasharray="1,5" d="M1041.19,-113.88C1018.46,-98.44 981.82,-73.57 955.77,-55.88"/>
<polygon fill="black" stroke="black" points="957.61,-52.91 947.37,-50.19 953.68,-58.7 957.61,-52.91"/>
</g>
<!-- node8&#45;&gt;node1 -->
<g id="edge20" class="edge">
<title>node8&#45;&gt;node1</title>
<path fill="none" stroke="black" stroke-dasharray="1,5" d="M1085.16,-114.66C1092.12,-110.78 1099.82,-106.62 1107,-103 1142.37,-85.19 1183.38,-66.75 1213.57,-53.57"/>
<polygon fill="black" stroke="black" points="1215.19,-56.68 1222.97,-49.48 1212.4,-50.26 1215.19,-56.68"/>
</g>
</g>
</svg>
